<?xml version="1.0" encoding="UTF-8"?>
<svg id="Layer_1" data-name="Layer 1" xmlns="http://www.w3.org/2000/svg" viewBox="0 0 745.21 324.18">
  <defs>
    <style>
      .cls-1 {
        fill: #966627;
        stroke-width: 0px;
      }
    </style>
  </defs>
  <g id="logomark">
    <path class="cls-1" d="M512.23,171.09c-13.91,2.92-27,8.1-38.83,15.17-5.75-5.14-11.97-9.82-18.59-13.95-14.71-9.2-31.38-15.71-49.26-18.83-7.88-1.39-16.01-2.11-24.3-2.11-23.73,0-46.03,5.88-65.44,16.23-.59.3-1.16.61-1.74.94-.58.31-1.15.63-1.73.96-.57.32-1.14.65-1.71,1-.53.3-1.05.61-1.56.93-.61.35-1.21.73-1.81,1.12-.35.21-.71.43-1.05.67-3.27,2.1-6.44,4.32-9.5,6.69-.63.49-1.26.99-1.9,1.49-.11.09-.22.18-.33.27-.69.55-1.37,1.11-2.05,1.69-.82.69-1.63,1.37-2.44,2.08.13-.81.27-1.62.42-2.42.01-.09.03-.18.04-.27.09-.49.19-.98.29-1.46.12-.63.26-1.25.39-1.87.11-.49.21-.96.32-1.44.2-.86.41-1.72.63-2.57.17-.68.35-1.34.53-2.02.28-1,.57-1.98.86-2.97.21-.68.42-1.36.64-2.04.04-.11.08-.22.11-.33.25-.78.52-1.55.8-2.32.28-.8.57-1.59.86-2.36.3-.79.6-1.56.92-2.34.31-.78.63-1.55.96-2.32.31-.73.63-1.45.95-2.17.4-.86.81-1.73,1.22-2.57.33-.69.67-1.36,1.02-2.04.38-.73.75-1.47,1.15-2.2.4-.73.8-1.46,1.21-2.18,1.63-2.88,3.39-5.69,5.27-8.4.47-.68.94-1.35,1.42-2.02.49-.68.98-1.34,1.47-2,.02-.02.03-.06.06-.08.44-.59.89-1.16,1.34-1.74,1.3-1.65,2.64-3.27,4.04-4.85.37-.43.74-.85,1.13-1.28,1.01-1.12,2.05-2.22,3.1-3.29.53-.54,1.06-1.08,1.61-1.61,4.27-4.19,8.86-8.04,13.74-11.51.42-.31.85-.61,1.29-.91,3.2-2.22,6.52-4.28,9.95-6.16.72-.39,1.43-.78,2.16-1.15,1.14-.6,2.3-1.18,3.46-1.74,14.95-7.17,31.71-11.2,49.39-11.2,14.48,0,28.33,2.69,41.08,7.61,32.21,12.42,57.38,39.02,67.87,72.13.18.58.35,1.15.53,1.74Z"/>
    <path class="cls-1" d="M152.89,268.99c27.34-2.83,59.33-17.29,70.02-24.64,16.55-9.71,28.36-17.96,42.71-28.93,5.66-4.81,13.24-9.98,19.03-14.23,28.47-20.84,63.6-33.15,101.6-33.15,2.05,0,4.08.03,6.11.11,15.27.53,30.02,3.05,44.03,7.31-31.82,6.35-56.53,17.66-84.24,32.6-14.72,7.64-28.27,15.03-40.44,21.59-24.15,13.02-50.14,23.06-77.48,29.64-24.39,5.88-62.78,11.69-84.58,9.85,2.41-.21-.68-.14,3.24-.14"/>
    <path class="cls-1" d="M0,289s100.21,40.76,233.82-5.1c0,0,40.76-11.89,75.3-30.57,34.54-18.68,110.97-55.48,141.54-61.71,0,0-40.96,24.59-55.48,33.97-11.8,7.62-63.85,38.11-91.15,53.24-26.6,14.74-132.48,52.63-198.72,44.11,0,0-56.62-4.51-105.31-33.95Z"/>
    <path class="cls-1" d="M338.02,284.52s22.8-7.2,59.45-34.02c0,0,68.32-46.15,118.33-62.21,33.97-10.91,103.61-23.24,173.24,17.53,0,0-81.53-41.11-171.55-5.64,0,0-71.34,26.56-111.53,52.61-42.46,26.61-67.94,31.73-67.94,31.73Z"/>
    <path class="cls-1" d="M745.21,275.66s-15-4.74-39.1-22.37c0,0-44.94-30.35-77.83-40.92-22.34-7.17-68.15-15.28-113.95,11.53,0,0,53.62-27.04,112.83-3.71,0,0,46.92,17.47,73.36,34.6,27.93,17.5,44.69,20.87,44.69,20.87Z"/>
    <path class="cls-1" d="M397.08,65.25L400.76.19c.01-.25.39-.25.4,0l2.52,64.98c0,.11-.08.21-.2.21l-6.21.08c-.12,0-.21-.1-.2-.21Z"/>
    <path class="cls-1" d="M448.66,74.03l28.3-58.7c.11-.23.45-.08.37.16l-22.53,61c-.04.11-.16.16-.26.12l-5.77-2.3c-.11-.04-.16-.17-.11-.27Z"/>
    <path class="cls-1" d="M497.01,99.33l44.54-39.77c.19-.17.45.1.28.28l-40.47,43.74c-.08.08-.2.09-.29,0l-4.07-3.97c-.08-.08-.08-.21,0-.29Z"/>
    <path class="cls-1" d="M529.11,147.06l52.08-18.2c.24-.08.38.26.15.37l-50.01,23.03c-.1.05-.22,0-.27-.1l-2.07-4.83c-.05-.11,0-.23.12-.27Z"/>
    <path class="cls-1" d="M347.29,75.06l-21.49-61.52c-.08-.24.26-.38.37-.15l27.2,59.07c.05.1,0,.22-.1.27l-5.71,2.45c-.11.05-.23,0-.27-.12Z"/>
    <path class="cls-1" d="M303.65,107.46l-43.1-48.01c-.17-.19.1-.45.28-.28l47.41,43.61c.08.08.09.21,0,.29l-4.31,4.4c-.08.08-.21.08-.29,0Z"/>
    <path class="cls-1" d="M272.86,155.51l-55.53-26.78c-.23-.11-.08-.45.16-.37l57.71,21.32c.11.04.16.16.12.26l-2.18,5.46c-.04.11-.17.16-.27.11Z"/>
    <path class="cls-1" d="M254.15,210.96l-55.22-8.46c-.25-.04-.21-.41.04-.4l55.66,3.15c.11,0,.2.1.19.22l-.44,5.3c0,.11-.11.2-.23.18Z"/>
  </g>
</svg>